<?xml version="1.0" encoding="iso-8859-1"?>
<!-- Generator: Adobe Illustrator 19.0.0, SVG Export Plug-In . SVG Version: 6.00 Build 0)  -->
<svg version="1.1" id="Capa_1" xmlns="http://www.w3.org/2000/svg" xmlns:xlink="http://www.w3.org/1999/xlink" x="0px" y="0px" width="70" height="100"
	 viewBox="0 0 512 512" style="enable-background:new 0 0 512 512;" xml:space="preserve">
<path style="fill:#4CE166;" d="M511.426,499.738l-73.805-177.332c-1.16-2.788-3.884-4.604-6.904-4.604H81.282
	c-3.02,0-5.744,1.817-6.904,4.604L0.575,499.738c-0.961,2.307-0.705,4.943,0.683,7.022c1.387,2.08,3.721,3.329,6.221,3.329h497.044
	c2.5,0,4.835-1.249,6.221-3.329C512.131,504.682,512.386,502.045,511.426,499.738z"/>
<path style="fill:#44C868;" d="M480.714,510.09h23.808c2.5,0,4.835-1.249,6.221-3.329c1.388-2.079,1.643-4.715,0.683-7.022
	l-73.804-177.332c-1.16-2.788-3.884-4.604-6.904-4.604h-30.032L480.714,510.09z"/>
<g>
	<path style="fill:#FFDB56;" d="M303.02,389.007c-12.681-5.169-29.381-8.014-47.023-8.014s-34.341,2.846-47.023,8.014
		c-14.809,6.036-22.964,14.892-22.964,24.939c0,10.047,8.156,18.903,22.964,24.938c12.681,5.169,29.382,8.014,47.023,8.014
		s34.341-2.846,47.023-8.014c14.808-6.035,22.964-14.892,22.964-24.938C325.984,403.9,317.829,395.043,303.02,389.007z"/>
	<path style="fill:#FFDB56;" d="M452.797,358.871h-4.981c-0.03,0-0.06,0-0.09,0c-37.73,0-67.052,19.82-79.877,30.256
		c-15.979-21.175-52.171-36.497-97.506-39.29c-4.122-0.255-7.669,2.882-7.923,7.003c-0.254,4.122,2.882,7.669,7.003,7.923
		c44.062,2.715,79.994,18.76,89.736,38.508c0.131,0.343,0.288,0.678,0.472,1.003c1.403,3.148,2.146,6.384,2.146,9.671
		c0,17.197-21.169,34.082-53.932,43.014c-3.984,1.087-6.334,5.198-5.249,9.182c0.907,3.326,3.921,5.513,7.21,5.513
		c0.651,0,1.313-0.086,1.972-0.265c40.066-10.924,64.953-32.935,64.953-57.443c0-3.85-0.603-7.612-1.753-11.267
		c9.475-8.108,37.195-28.853,72.753-28.853c0.024,0,0.053,0,0.077,0h11.212L452.797,358.871z"/>
	<path style="fill:#FFDB56;" d="M23.883,460.449c0.191,0.114,0.388,0.219,0.588,0.314c0.692,0.332,17.252,8.152,42.069,10.182
		c3.537,0.289,7.351,0.465,11.405,0.465c20.919,0,48.176-4.681,75.977-22.523c21.226,17.931,58.63,29.606,102.074,29.606
		c4.13,0,7.478-3.348,7.478-7.478c0-4.131-3.348-7.478-7.478-7.478c-29.106,0-56.353-5.652-76.72-15.915
		c-18.468-9.306-29.06-21.581-29.06-33.676c0-15.579,17.488-31.099,45.639-40.505c3.917-1.309,6.031-5.545,4.722-9.462
		c-1.309-3.916-5.543-6.032-9.462-4.722c-34.975,11.685-55.856,32.13-55.856,54.69c0,8.467,2.903,16.505,8.217,23.851
		c-23.083,14.205-48.307,20.357-75.119,18.29c-20.659-1.593-35.126-7.78-37.177-8.698l-7.072-4.2l-5.805,13.947L23.883,460.449z"/>
	<path style="fill:#FFDB56;" d="M471.811,404.557l-4.066,7.82c-2.348,4.517-5.261,8.71-8.693,12.471
		c-18.077,19.813-77.667,74.897-185.318,80.298c-3.107,0.156-5.674,2.188-6.664,4.943h73.164
		c38.317-10.007,67.499-25.542,87.504-39.035c32.955-22.224,48.707-43.537,49.361-44.433c0.222-0.305,0.421-0.626,0.595-0.96
		l1.61-3.098L471.811,404.557z"/>
	<path style="fill:#FFDB56;" d="M61.273,387.365c6.495,0,22.566-0.605,41.786-5.757c32.773-8.785,59.176-26.77,76.365-52.007
		c0.013-0.018,0.026-0.036,0.038-0.054c0.015-0.022,0.031-0.042,0.046-0.064c0.172-0.254,0.321-0.516,0.459-0.783
		c0.01-0.02,0.024-0.037,0.034-0.057l5.459-10.841h-16.744l-1.817,3.608c-15.274,22.304-37.895,37.658-67.257,45.628
		c-22.421,6.085-40.535,5.34-40.706,5.332c-0.125-0.006-0.259-0.016-0.372-0.009l-4.979,0.007l-6.229,14.965l11.064-0.016
		C58.841,387.335,59.815,387.365,61.273,387.365z"/>
</g>
<path style="fill:#FF4A4A;" d="M256,1.91c-89.061,0-161.516,72.457-161.516,161.517c0,30.703,8.355,63.278,24.835,96.819
	c13.04,26.544,31.185,53.775,53.929,80.939c38.585,46.084,76.579,75.67,78.177,76.908c1.348,1.043,2.962,1.563,4.576,1.563
	s3.228-0.52,4.576-1.563c1.599-1.237,39.592-30.824,78.177-76.908c22.744-27.164,40.888-54.395,53.929-80.939
	c16.479-33.542,24.835-66.117,24.835-96.819C417.517,74.367,345.061,1.91,256,1.91z M256,101.99
	c33.932,0,61.438,27.507,61.438,61.438S289.932,224.867,256,224.867s-61.438-27.507-61.438-61.438S222.069,101.99,256,101.99z"/>
<path style="fill:#E7343F;" d="M256,1.91c-5.179,0-10.298,0.255-15.354,0.734c81.886,7.758,146.164,76.901,146.164,160.784
	c0,30.703-8.355,63.278-24.835,96.819c-13.04,26.544-31.185,53.775-53.929,80.939c-26.714,31.906-53.135,55.895-67.401,68.051
	c6.338,5.402,10.285,8.475,10.777,8.856c1.348,1.043,2.962,1.563,4.576,1.563c1.614,0,3.228-0.52,4.576-1.563
	c1.599-1.237,39.592-30.824,78.177-76.908c22.744-27.164,40.888-54.395,53.929-80.939c16.479-33.542,24.835-66.116,24.835-96.819
	C417.517,74.367,345.061,1.91,256,1.91z"/>
<g>
	<path style="fill:#FFBB24;" d="M447.816,358.871c-0.03,0-0.06,0-0.09,0c-10.126,0-19.639,1.436-28.398,3.727l5.819,13.98
		c7.059-1.705,14.624-2.751,22.586-2.751c0.024,0,0.053,0,0.077,0h11.212l-6.225-14.956H447.816z"/>
	<path style="fill:#FFBB24;" d="M471.811,404.557l-4.066,7.82c-2.348,4.517-5.261,8.71-8.693,12.471
		c-2.462,2.698-5.699,6.054-9.718,9.846l6.145,14.763c14.18-12.764,21.189-22.245,21.621-22.836c0.222-0.305,0.421-0.626,0.595-0.96
		l1.61-3.098L471.811,404.557z"/>
</g>
<g>
</g>
<g>
</g>
<g>
</g>
<g>
</g>
<g>
</g>
<g>
</g>
<g>
</g>
<g>
</g>
<g>
</g>
<g>
</g>
<g>
</g>
<g>
</g>
<g>
</g>
<g>
</g>
<g>
</g>
</svg>
