<?xml version="1.0" encoding="iso-8859-1"?>
<!-- Generator: Adobe Illustrator 21.0.0, SVG Export Plug-In . SVG Version: 6.00 Build 0)  -->
<svg xmlns="http://www.w3.org/2000/svg" xmlns:xlink="http://www.w3.org/1999/xlink" version="1.1" id="Capa_1" x="0px" y="0px" viewBox="0 0 512 512" style="enable-background:new 0 0 512 512;" xml:space="preserve" width="512" height="512">
<g>
	<path style="fill:#60DD4E;" d="M408.9,447.73c0,14.13-8.73,34.1-50.33,48.96C330.96,506.56,294.54,512,256.04,512   s-74.91-5.44-102.53-15.31c-41.6-14.86-50.33-34.83-50.33-48.96s8.73-34.1,50.33-48.96c27.62-9.87,64.03-15.31,102.53-15.31   s74.92,5.44,102.53,15.31C400.17,413.63,408.9,433.6,408.9,447.73z"/>
	<path style="fill:#00BB64;" d="M408.9,447.73c0,14.13-8.73,34.1-50.33,48.96C330.96,506.56,294.54,512,256.04,512V383.46   c38.5,0,74.92,5.44,102.53,15.31C400.17,413.63,408.9,433.6,408.9,447.73z"/>
	<path style="fill:#FF4F1A;" d="M436.05,180.05c0,47.42-28.82,108.93-85.64,182.81c-41.43,53.86-82.2,93.91-83.92,95.59   l-10.45,10.23l-0.02,0.02l-10.49-10.23c-1.72-1.67-42.5-41.57-83.94-95.36c-56.83-73.78-85.64-135.37-85.64-183.06   C75.95,80.77,156.72,0,256,0h0.04C355.3,0.02,436.05,80.78,436.05,180.05z"/>
	<path style="fill:#CA1C00;" d="M436.05,180.05c0,47.42-28.82,108.93-85.64,182.81c-41.43,53.86-82.2,93.91-83.92,95.59   l-10.45,10.23V0C355.3,0.02,436.05,80.78,436.05,180.05z"/>
	<path style="fill:#FFFFFF;" d="M343.02,178.15c0,47.97-39.02,87-86.98,87.02H256c-47.98,0-87.02-39.04-87.02-87.02   S208.02,91.13,256,91.13h0.04C304,91.15,343.02,130.18,343.02,178.15z"/>
	<path style="fill:#DFCDBD;" d="M256.04,265.17V91.13c47.96,0.02,86.98,39.05,86.98,87.02C343.02,226.12,304,265.15,256.04,265.17z"/>
</g>















</svg>
